#!OML:ASF H:\Punching\Project 1\Capture day 1\Session 1\female.ASF
:FULLY-SPECIFIED
:DEGREES
1413
root -2.00154 13.4427 4.90548 11.5577 40.2411 1.45342
lowerback 12.3333 1.38371 6.40862
upperback -2.23535 3.42205 5.42132
thorax -9.35257 1.49947 1.53241
lowerneck -9.32616 -7.35747 -0.624139
upperneck 23.4294 -11.1741 5.24864
head 9.24033 -4.61388 0.703764
rclavicle 6.63941e-014 -9.54166e-015
rhumerus 17.2249 4.68638 -69.382
rradius 140.735
rwrist -51.8111
rhand -15.0161 -8.11014
rfingers 7.12502
rthumb 11.1492 -37.7939
lclavicle 6.63941e-014 -9.54166e-015
lhumerus 4.21831 -36.9624 85.2754
lradius 141.048
lwrist 35.4026
lhand -11.5107 31.5046
lfingers 7.12502
lthumb 14.5285 60.9758
rfemur -49.3013 -20.7675 11.5091
rtibia 75.1897
rfoot -25.6238 -16.5954
rtoes -9.75686
lfemur -39.6344 -11.2625 9.93121
ltibia 63.9998
lfoot -19.278 -24.8416
ltoes -28.7412
1414
root -2.00409 13.4629 4.91695 11.4951 40.5498 1.52276
lowerback 12.2962 1.75883 6.17178
upperback -2.22772 3.88367 5.44267
thorax -9.33117 1.7362 1.59643
lowerneck -9.28451 -7.61829 -0.969367
upperneck 23.4499 -11.5257 5.48697
head 9.2893 -4.77721 0.800061
rclavicle -3.61788e-014 -3.18055e-014
rhumerus 17.1968 4.47785 -69.5186
rradius 140.625
rwrist -51.7623
rhand -15.2569 -8.1831
rfingers 7.12502
rthumb 10.917 -37.8793
lclavicle -3.61788e-014 -3.18055e-014
lhumerus 3.9393 -37.7306 85.5479
lradius 141.392
lwrist 34.9533
lhand -11.6162 31.6055
lfingers 7.12502
lthumb 14.4269 61.0841
rfemur -48.8811 -20.6764 11.3982
rtibia 74.9829
rfoot -25.5864 -16.9171
rtoes -9.54881
lfemur -39.3055 -11.5616 9.81418
ltibia 63.4887
lfoot -19.6432 -24.3095
ltoes -29.1579
1415
root -2.00437 13.4819 4.92698 11.4809 40.6524 1.62908
lowerback 12.2299 2.09568 5.91833
upperback -2.20093 4.27897 5.3962
thorax -9.27095 1.94006 1.61119
lowerneck -9.26347 -7.78588 -1.16342
upperneck 23.4859 -11.7617 5.65801
head 9.33117 -4.88072 0.861632
rclavicle -2.78299e-015 4.77083e-014
rhumerus 17.2015 4.44148 -69.837
rradius 140.47
rwrist -51.6449
rhand -15.4837 -8.22821
rfingers 7.12502
rthumb 10.6983 -37.9358
lclavicle -2.78299e-015 4.77083e-014
lhumerus 3.70474 -38.4486 85.7259
lradius 141.71
lwrist 34.5479
lhand -11.6694 31.6991
lfingers 7.12502
lthumb 14.3756 61.1814
rfemur -48.5726 -20.4961 11.262
rtibia 74.7853
rfoot -25.5304 -17.1498
rtoes -9.37039
lfemur -38.9235 -11.8481 9.64501
ltibia 63.0283
lfoot -20.0277 -23.7163
ltoes -29.6695
1416
root -2.00229 13.4997 4.935 11.5155 40.5649 1.7649
lowerback 12.1548 2.38631 5.67649
upperback -2.17636 4.60507 5.27179
thorax -9.20275 2.10675 1.55053
lowerneck -9.25016 -7.86171 -1.18587
upperneck 23.542 -11.8844 5.74963
head 9.36144 -4.92517 0.881918
rclavicle -2.26615e-014 3.18055e-015
rhumerus 17.177 4.61545 -70.3552
rradius 140.312
rwrist -51.4285
rhand -15.7067 -8.24296
rfingers 7.12502
rthumb 10.4831 -37.9616
lclavicle -2.26615e-014 3.18055e-015
lhumerus 3.51397 -39.1173 85.8136
lradius 141.969
lwrist 34.1582
lhand -11.6659 31.7744
lfingers 7.12502
lthumb 14.3789 61.2564
rfemur -48.3775 -20.2476 11.1086
rtibia 74.5921
rfoot -25.452 -17.2908
rtoes -9.23135
lfemur -38.5002 -12.135 9.44095
ltibia 62.6053
lfoot -20.4115 -23.0901
ltoes -30.2404
1417
root -1.99797 13.5165 4.94066 11.5844 40.2814 1.89853
lowerback 12.0512 2.63449 5.44604
upperback -2.14776 4.86748 5.09271
thorax -9.10866 2.24054 1.4397
lowerneck -9.26134 -7.86081 -1.13082
upperneck 23.6573 -11.9203 5.84257
head 9.40908 -4.91988 0.898791
rclavicle -3.97569e-016 -2.8625e-014
rhumerus 17.1553 4.96046 -71.0327
rradius 140.135
rwrist -51.165
rhand -15.8549 -8.19112
rfingers 7.12502
rthumb 10.3401 -37.9169
lclavicle -3.97569e-016 -2.8625e-014
lhumerus 3.40426 -39.7189 85.8232
lradius 142.132
lwrist 33.7412
lhand -11.6132 31.8209
lfingers 7.12502
lthumb 14.4297 61.2993
rfemur -48.3061 -19.9166 10.9669
rtibia 74.3952
rfoot -25.3461 -17.3468
rtoes -9.12222
lfemur -38.0371 -12.4015 9.228
ltibia 62.2142
lfoot -20.8173 -22.434
ltoes -30.9524
